<mxfile host="app.diagrams.net" modified="2022-03-02T06:47:08.006Z" agent="5.0 (X11; Linux x86_64) AppleWebKit/537.36 (KHTML, like Gecko) Chrome/97.0.4692.99 Safari/537.36" etag="G70O--Mr6yPASI1YZRvL" version="16.6.4" type="github">
  <diagram id="fX1N0Izo0hs0CVhL5_eH" name="Page-1">
    <mxGraphModel dx="2098" dy="711" grid="1" gridSize="10" guides="1" tooltips="1" connect="1" arrows="1" fold="1" page="1" pageScale="1" pageWidth="850" pageHeight="1100" math="0" shadow="0">
      <root>
        <mxCell id="0" />
        <mxCell id="1" parent="0" />
        <mxCell id="xxNpDOoEi1nFRLoYtwYr-48" value="&lt;b&gt;Google &lt;/b&gt;Cloud Platform" style="fillColor=#F6F6F6;strokeColor=none;shadow=0;gradientColor=none;fontSize=14;align=left;spacing=10;fontColor=#717171;9E9E9E;verticalAlign=top;spacingTop=-4;fontStyle=0;spacingLeft=40;html=1;" vertex="1" parent="1">
          <mxGeometry x="-800" y="49.99999999999999" width="650" height="1140" as="geometry" />
        </mxCell>
        <mxCell id="xxNpDOoEi1nFRLoYtwYr-49" value="" style="shape=mxgraph.gcp2.google_cloud_platform;fillColor=#F6F6F6;strokeColor=none;shadow=0;gradientColor=none;fontSize=29;" vertex="1" parent="xxNpDOoEi1nFRLoYtwYr-48">
          <mxGeometry width="23" height="20" relative="1" as="geometry">
            <mxPoint x="20" y="10" as="offset" />
          </mxGeometry>
        </mxCell>
        <mxCell id="xxNpDOoEi1nFRLoYtwYr-2" value="" style="editableCssRules=.*;shape=image;verticalLabelPosition=bottom;labelBackgroundColor=#ffffff;verticalAlign=top;aspect=fixed;imageAspect=0;image=data:image/svg+xml,PHN2ZyB4bWxucz0iaHR0cDovL3d3dy53My5vcmcvMjAwMC9zdmciIHhtbG5zOnY9Imh0dHBzOi8vdmVjdGEuaW8vbmFubyIgd2lkdGg9IjM3NS44NTAyODQ2NDQwODg3MyIgaGVpZ2h0PSIzNTMuODA1Nzc3NDY3NzY5NyIgdmlld0JveD0iMC4yNTU5OTk1NjUxMjQ1MTE3IDAuNDI2MDAwMDI4ODQ4NjQ4MDcgOTkuNDQzNjU2OTIxMzg2NzIgOTMuNjExMDAwMDYxMDM1MTYiPiYjeGE7PHN0eWxlIHR5cGU9InRleHQvY3NzIj4mI3hhOwkuc3Qwe2ZpbGw6I2FlY2JmYTt9JiN4YTsJLnN0MXtmaWxsOiNmZmY7fSYjeGE7CS5zdDJ7ZmlsbDojNDI4NWY0O30mI3hhOwkuc3Qze2ZpbGw6IzY2OWRmNjt9JiN4YTs8L3N0eWxlPiYjeGE7CTxwYXRoIGNsYXNzPSJzdDAiIGQ9Ik04LjU0NCA3MS45MjhjLTQuODE1IDAtOC4yODgtMy44ODktOC4yODgtOC4zMjdWNy45ODNDLjI1NyA0LjY1IDQuMDcyLjQyNiA3LjQ5NS40MjZoODMuOTUyYzQuNzA1IDAgOC4yNTIgMy4zNzkgOC4yNTIgOC4xNzR2NTEuNDk1Yy4wNDcgNy41OTUtMi40NyAxMS44MzQtOS4wMTIgMTEuODM0eiIvPiYjeGE7CTxwYXRoIGNsYXNzPSJzdDEiIGQ9Ik0yOC4wNDYgNTcuMTV2LTkuOTIybDMxLjg4Mi0xMy44OTEtMzEuODgyLTEzLjY5MlY5LjI2MWw0NS44MDYgMTguOTg0djkuNzl6bTI1LjIzNSAzLjY3MXYtMTAuNTVoMjAuMDc1djEwLjU1eiIvPiYjeGE7CTxwYXRoIGNsYXNzPSJzdDIiIGQ9Ik00MC4wMyA4My41MjRWNzEuOTI4aDIwLjI5NXYxMS41OTZ6Ii8+JiN4YTsJPHBhdGggY2xhc3M9InN0MyIgZD0iTTY5Ljg3MyA4My41MjR2MTAuNTEzSDMwLjFWODMuNTI0eiIvPiYjeGE7PC9zdmc+;" vertex="1" parent="xxNpDOoEi1nFRLoYtwYr-48">
          <mxGeometry x="200.39999999999998" y="55.96363636363636" width="73.69" height="70" as="geometry" />
        </mxCell>
        <mxCell id="xxNpDOoEi1nFRLoYtwYr-4" value="&lt;p style=&quot;line-height: 1.3&quot;&gt;&lt;/p&gt;&lt;div&gt;&lt;font style=&quot;font-size: 12px&quot;&gt;PROJECT_ID=$(gcloud config get-value project)&lt;/font&gt;&lt;/div&gt;&lt;div&gt;&lt;font style=&quot;font-size: 12px&quot;&gt;BUCKET_NAME=$PROJECT_ID&lt;/font&gt;&lt;/div&gt;&lt;div&gt;&lt;font style=&quot;font-size: 12px&quot;&gt;TOPIC_ID=my-id&lt;/font&gt;&lt;/div&gt;&lt;div&gt;&lt;font style=&quot;font-size: 12px&quot;&gt;REGION=us-central1&lt;/font&gt;&lt;/div&gt;&lt;div&gt;&lt;font style=&quot;font-size: 12px&quot;&gt;AE_REGION=us-central&lt;/font&gt;&lt;/div&gt;&lt;p&gt;&lt;/p&gt;" style="rounded=0;whiteSpace=wrap;html=1;align=left;" vertex="1" parent="xxNpDOoEi1nFRLoYtwYr-48">
          <mxGeometry x="355.4000000000001" y="35.236363636363635" width="210" height="114" as="geometry" />
        </mxCell>
        <mxCell id="xxNpDOoEi1nFRLoYtwYr-5" style="edgeStyle=orthogonalEdgeStyle;rounded=0;orthogonalLoop=1;jettySize=auto;html=1;entryX=0;entryY=0.5;entryDx=0;entryDy=0;" edge="1" parent="xxNpDOoEi1nFRLoYtwYr-48" source="xxNpDOoEi1nFRLoYtwYr-2" target="xxNpDOoEi1nFRLoYtwYr-4">
          <mxGeometry relative="1" as="geometry" />
        </mxCell>
        <mxCell id="xxNpDOoEi1nFRLoYtwYr-6" value="GCP shell" style="text;html=1;align=center;verticalAlign=middle;resizable=0;points=[];autosize=1;strokeColor=none;fillColor=none;" vertex="1" parent="xxNpDOoEi1nFRLoYtwYr-48">
          <mxGeometry x="215.4000000000001" y="30.054545454545455" width="70" height="20" as="geometry" />
        </mxCell>
        <mxCell id="xxNpDOoEi1nFRLoYtwYr-8" value="" style="strokeColor=#dddddd;shadow=1;strokeWidth=1;rounded=1;absoluteArcSize=1;arcSize=2;" vertex="1" parent="xxNpDOoEi1nFRLoYtwYr-48">
          <mxGeometry x="390.4000000000001" y="268.41818181818184" width="140" height="62.18181818181818" as="geometry" />
        </mxCell>
        <mxCell id="xxNpDOoEi1nFRLoYtwYr-9" value="&lt;font color=&quot;#000000&quot;&gt;$PROJECT_ID&lt;/font&gt;&lt;br&gt;Cloud Storage" style="sketch=0;dashed=0;connectable=0;html=1;fillColor=#5184F3;strokeColor=none;shape=mxgraph.gcp2.hexIcon;prIcon=cloud_storage;part=1;labelPosition=right;verticalLabelPosition=middle;align=left;verticalAlign=middle;spacingLeft=5;fontColor=#999999;fontSize=12;" vertex="1" parent="xxNpDOoEi1nFRLoYtwYr-8">
          <mxGeometry y="0.5" width="44" height="39" relative="1" as="geometry">
            <mxPoint x="5" y="-19.5" as="offset" />
          </mxGeometry>
        </mxCell>
        <mxCell id="xxNpDOoEi1nFRLoYtwYr-12" style="edgeStyle=orthogonalEdgeStyle;rounded=0;orthogonalLoop=1;jettySize=auto;html=1;entryX=0.5;entryY=0;entryDx=0;entryDy=0;" edge="1" parent="xxNpDOoEi1nFRLoYtwYr-48" source="xxNpDOoEi1nFRLoYtwYr-4" target="xxNpDOoEi1nFRLoYtwYr-8">
          <mxGeometry relative="1" as="geometry" />
        </mxCell>
        <mxCell id="xxNpDOoEi1nFRLoYtwYr-13" value="gsutil mb gs://$BUCKET_NAME" style="edgeLabel;html=1;align=center;verticalAlign=middle;resizable=0;points=[];" vertex="1" connectable="0" parent="xxNpDOoEi1nFRLoYtwYr-12">
          <mxGeometry x="-0.1785" y="1" relative="1" as="geometry">
            <mxPoint as="offset" />
          </mxGeometry>
        </mxCell>
        <mxCell id="xxNpDOoEi1nFRLoYtwYr-14" value="" style="strokeColor=#dddddd;shadow=1;strokeWidth=1;rounded=1;absoluteArcSize=1;arcSize=2;" vertex="1" parent="xxNpDOoEi1nFRLoYtwYr-48">
          <mxGeometry x="385.4000000000001" y="434.23636363636365" width="150" height="62.18181818181818" as="geometry" />
        </mxCell>
        <mxCell id="xxNpDOoEi1nFRLoYtwYr-15" value="&lt;font color=&quot;#000000&quot;&gt;Topic = my-topic-id&lt;/font&gt;&lt;br&gt;Cloud Pub/Sub" style="sketch=0;dashed=0;connectable=0;html=1;fillColor=#5184F3;strokeColor=none;shape=mxgraph.gcp2.hexIcon;prIcon=cloud_pubsub;part=1;labelPosition=right;verticalLabelPosition=middle;align=left;verticalAlign=middle;spacingLeft=5;fontColor=#999999;fontSize=12;" vertex="1" parent="xxNpDOoEi1nFRLoYtwYr-14">
          <mxGeometry y="0.5" width="44" height="39" relative="1" as="geometry">
            <mxPoint x="5" y="-19.5" as="offset" />
          </mxGeometry>
        </mxCell>
        <mxCell id="xxNpDOoEi1nFRLoYtwYr-16" style="edgeStyle=orthogonalEdgeStyle;rounded=0;orthogonalLoop=1;jettySize=auto;html=1;entryX=0.5;entryY=0;entryDx=0;entryDy=0;" edge="1" parent="xxNpDOoEi1nFRLoYtwYr-48" source="xxNpDOoEi1nFRLoYtwYr-8" target="xxNpDOoEi1nFRLoYtwYr-14">
          <mxGeometry relative="1" as="geometry" />
        </mxCell>
        <mxCell id="xxNpDOoEi1nFRLoYtwYr-17" value="gcloud pubsub topics create $TOPIC_ID" style="edgeLabel;html=1;align=center;verticalAlign=middle;resizable=0;points=[];" vertex="1" connectable="0" parent="xxNpDOoEi1nFRLoYtwYr-16">
          <mxGeometry x="0.1975" relative="1" as="geometry">
            <mxPoint y="-10" as="offset" />
          </mxGeometry>
        </mxCell>
        <mxCell id="xxNpDOoEi1nFRLoYtwYr-18" value="" style="strokeColor=#dddddd;shadow=1;strokeWidth=1;rounded=1;absoluteArcSize=1;arcSize=2;" vertex="1" parent="xxNpDOoEi1nFRLoYtwYr-48">
          <mxGeometry x="390.4000000000001" y="589.6909090909091" width="140" height="72.54545454545455" as="geometry" />
        </mxCell>
        <mxCell id="xxNpDOoEi1nFRLoYtwYr-19" value="&lt;font color=&quot;#000000&quot;&gt;Name&lt;/font&gt;&lt;br&gt;App Engine&lt;hr&gt;&lt;font style=&quot;font-size: 11px&quot;&gt;us-central1&lt;/font&gt;" style="sketch=0;dashed=0;connectable=0;html=1;fillColor=#5184F3;strokeColor=none;shape=mxgraph.gcp2.app_engine;part=1;labelPosition=right;verticalLabelPosition=middle;align=left;verticalAlign=top;spacingLeft=5;fontColor=#999999;fontSize=12;spacingTop=-8;" vertex="1" parent="xxNpDOoEi1nFRLoYtwYr-18">
          <mxGeometry width="44" height="39" relative="1" as="geometry">
            <mxPoint x="5" y="7" as="offset" />
          </mxGeometry>
        </mxCell>
        <mxCell id="xxNpDOoEi1nFRLoYtwYr-20" style="edgeStyle=orthogonalEdgeStyle;rounded=0;orthogonalLoop=1;jettySize=auto;html=1;entryX=0.5;entryY=0;entryDx=0;entryDy=0;" edge="1" parent="xxNpDOoEi1nFRLoYtwYr-48" source="xxNpDOoEi1nFRLoYtwYr-14" target="xxNpDOoEi1nFRLoYtwYr-18">
          <mxGeometry relative="1" as="geometry" />
        </mxCell>
        <mxCell id="xxNpDOoEi1nFRLoYtwYr-21" value="gcloud app create --region=$AE_REGION" style="edgeLabel;html=1;align=center;verticalAlign=middle;resizable=0;points=[];" vertex="1" connectable="0" parent="xxNpDOoEi1nFRLoYtwYr-20">
          <mxGeometry x="-0.1821" relative="1" as="geometry">
            <mxPoint as="offset" />
          </mxGeometry>
        </mxCell>
        <mxCell id="xxNpDOoEi1nFRLoYtwYr-24" value="" style="strokeColor=#dddddd;shadow=1;strokeWidth=1;rounded=1;absoluteArcSize=1;arcSize=2;" vertex="1" parent="xxNpDOoEi1nFRLoYtwYr-48">
          <mxGeometry x="385.4000000000001" y="755.5090909090909" width="150" height="62.18181818181818" as="geometry" />
        </mxCell>
        <mxCell id="xxNpDOoEi1nFRLoYtwYr-25" value="&lt;font color=&quot;#000000&quot;&gt;Scheduler jobs&lt;/font&gt;&lt;br&gt;Cloud Pub/Sub" style="sketch=0;dashed=0;connectable=0;html=1;fillColor=#5184F3;strokeColor=none;shape=mxgraph.gcp2.hexIcon;prIcon=cloud_pubsub;part=1;labelPosition=right;verticalLabelPosition=middle;align=left;verticalAlign=middle;spacingLeft=5;fontColor=#999999;fontSize=12;" vertex="1" parent="xxNpDOoEi1nFRLoYtwYr-24">
          <mxGeometry y="0.5" width="44" height="39" relative="1" as="geometry">
            <mxPoint x="5" y="-19.5" as="offset" />
          </mxGeometry>
        </mxCell>
        <mxCell id="xxNpDOoEi1nFRLoYtwYr-26" style="edgeStyle=orthogonalEdgeStyle;rounded=0;orthogonalLoop=1;jettySize=auto;html=1;" edge="1" parent="xxNpDOoEi1nFRLoYtwYr-48" source="xxNpDOoEi1nFRLoYtwYr-18" target="xxNpDOoEi1nFRLoYtwYr-24">
          <mxGeometry relative="1" as="geometry" />
        </mxCell>
        <mxCell id="xxNpDOoEi1nFRLoYtwYr-27" value="&lt;div&gt;gcloud scheduler jobs create pubsub publisher-job --schedule=&quot;* * * * *&quot; \&lt;/div&gt;&lt;div&gt;&amp;nbsp; &amp;nbsp; --topic=$TOPIC_ID --message-body=&quot;Hello!&quot;&lt;/div&gt;" style="edgeLabel;html=1;align=center;verticalAlign=middle;resizable=0;points=[];" vertex="1" connectable="0" parent="xxNpDOoEi1nFRLoYtwYr-26">
          <mxGeometry x="-0.3014" y="-3" relative="1" as="geometry">
            <mxPoint x="3" y="9" as="offset" />
          </mxGeometry>
        </mxCell>
        <mxCell id="xxNpDOoEi1nFRLoYtwYr-28" value="" style="strokeColor=#dddddd;shadow=1;strokeWidth=1;rounded=1;absoluteArcSize=1;arcSize=2;" vertex="1" parent="xxNpDOoEi1nFRLoYtwYr-48">
          <mxGeometry x="385.4000000000001" y="900.6" width="150" height="62.18181818181818" as="geometry" />
        </mxCell>
        <mxCell id="xxNpDOoEi1nFRLoYtwYr-29" value="&lt;font color=&quot;#000000&quot;&gt;Scheduler jobs&lt;/font&gt;&lt;br&gt;Cloud Pub/Sub" style="sketch=0;dashed=0;connectable=0;html=1;fillColor=#5184F3;strokeColor=none;shape=mxgraph.gcp2.hexIcon;prIcon=cloud_pubsub;part=1;labelPosition=right;verticalLabelPosition=middle;align=left;verticalAlign=middle;spacingLeft=5;fontColor=#999999;fontSize=12;" vertex="1" parent="xxNpDOoEi1nFRLoYtwYr-28">
          <mxGeometry y="0.5" width="44" height="39" relative="1" as="geometry">
            <mxPoint x="5" y="-19.5" as="offset" />
          </mxGeometry>
        </mxCell>
        <mxCell id="xxNpDOoEi1nFRLoYtwYr-30" style="edgeStyle=orthogonalEdgeStyle;rounded=0;orthogonalLoop=1;jettySize=auto;html=1;entryX=0.5;entryY=0;entryDx=0;entryDy=0;" edge="1" parent="xxNpDOoEi1nFRLoYtwYr-48" source="xxNpDOoEi1nFRLoYtwYr-24" target="xxNpDOoEi1nFRLoYtwYr-28">
          <mxGeometry relative="1" as="geometry" />
        </mxCell>
        <mxCell id="xxNpDOoEi1nFRLoYtwYr-31" value="gcloud scheduler jobs run publisher-job" style="edgeLabel;html=1;align=center;verticalAlign=middle;resizable=0;points=[];" vertex="1" connectable="0" parent="xxNpDOoEi1nFRLoYtwYr-30">
          <mxGeometry x="-0.3331" relative="1" as="geometry">
            <mxPoint y="14" as="offset" />
          </mxGeometry>
        </mxCell>
        <mxCell id="xxNpDOoEi1nFRLoYtwYr-34" value="Sample Project" style="rounded=0;whiteSpace=wrap;html=1;" vertex="1" parent="xxNpDOoEi1nFRLoYtwYr-48">
          <mxGeometry x="400.4000000000001" y="1035.3272727272727" width="120" height="62.18181818181818" as="geometry" />
        </mxCell>
        <mxCell id="xxNpDOoEi1nFRLoYtwYr-35" style="edgeStyle=orthogonalEdgeStyle;rounded=0;orthogonalLoop=1;jettySize=auto;html=1;entryX=0.5;entryY=0;entryDx=0;entryDy=0;" edge="1" parent="xxNpDOoEi1nFRLoYtwYr-48" source="xxNpDOoEi1nFRLoYtwYr-28" target="xxNpDOoEi1nFRLoYtwYr-34">
          <mxGeometry relative="1" as="geometry" />
        </mxCell>
        <mxCell id="xxNpDOoEi1nFRLoYtwYr-36" value="&lt;div&gt;git clone https://github.com/GoogleCloudPlatform/java-docs-samples.git&lt;/div&gt;&lt;div&gt;cd java-docs-samples/pubsub/streaming-analytics&lt;/div&gt;" style="edgeLabel;html=1;align=left;verticalAlign=middle;resizable=0;points=[];" vertex="1" connectable="0" parent="xxNpDOoEi1nFRLoYtwYr-35">
          <mxGeometry x="-0.3044" relative="1" as="geometry">
            <mxPoint x="-171" y="6" as="offset" />
          </mxGeometry>
        </mxCell>
        <mxCell id="xxNpDOoEi1nFRLoYtwYr-39" style="edgeStyle=orthogonalEdgeStyle;rounded=0;orthogonalLoop=1;jettySize=auto;html=1;entryX=-0.02;entryY=0.402;entryDx=0;entryDy=0;entryPerimeter=0;" edge="1" parent="xxNpDOoEi1nFRLoYtwYr-48" source="xxNpDOoEi1nFRLoYtwYr-37" target="xxNpDOoEi1nFRLoYtwYr-2">
          <mxGeometry relative="1" as="geometry" />
        </mxCell>
        <mxCell id="xxNpDOoEi1nFRLoYtwYr-40" value="Activate cloud shell" style="edgeLabel;html=1;align=center;verticalAlign=middle;resizable=0;points=[];" vertex="1" connectable="0" parent="xxNpDOoEi1nFRLoYtwYr-39">
          <mxGeometry x="0.1738" y="3" relative="1" as="geometry">
            <mxPoint x="-24" y="5" as="offset" />
          </mxGeometry>
        </mxCell>
        <mxCell id="xxNpDOoEi1nFRLoYtwYr-37" value="" style="dashed=0;outlineConnect=0;html=1;align=center;labelPosition=center;verticalLabelPosition=bottom;verticalAlign=top;shape=mxgraph.weblogos.google" vertex="1" parent="xxNpDOoEi1nFRLoYtwYr-48">
          <mxGeometry x="16.399999999999977" y="50.78181818181818" width="65.2" height="71.92363636363638" as="geometry" />
        </mxCell>
        <mxCell id="xxNpDOoEi1nFRLoYtwYr-38" value="GCP console" style="text;html=1;align=center;verticalAlign=middle;resizable=0;points=[];autosize=1;strokeColor=none;fillColor=none;" vertex="1" parent="xxNpDOoEi1nFRLoYtwYr-48">
          <mxGeometry x="8" y="30.054545454545455" width="90" height="20" as="geometry" />
        </mxCell>
        <mxCell id="xxNpDOoEi1nFRLoYtwYr-41" value="&lt;b&gt;Set these variables&lt;/b&gt;" style="text;html=1;align=center;verticalAlign=middle;resizable=0;points=[];autosize=1;strokeColor=none;fillColor=none;" vertex="1" parent="xxNpDOoEi1nFRLoYtwYr-48">
          <mxGeometry x="385.4000000000001" y="9.327272727272728" width="120" height="20" as="geometry" />
        </mxCell>
        <mxCell id="xxNpDOoEi1nFRLoYtwYr-42" value="&lt;b&gt;&lt;font style=&quot;font-size: 29px&quot;&gt;Setup&lt;/font&gt;&lt;/b&gt;" style="text;html=1;align=center;verticalAlign=middle;resizable=0;points=[];autosize=1;strokeColor=none;fillColor=none;fontSize=12;" vertex="1" parent="xxNpDOoEi1nFRLoYtwYr-48">
          <mxGeometry x="130.39999999999998" y="-32.127272727272725" width="100" height="20" as="geometry" />
        </mxCell>
        <mxCell id="xxNpDOoEi1nFRLoYtwYr-50" value="&lt;b&gt;Google &lt;/b&gt;Cloud Platform" style="fillColor=#F6F6F6;strokeColor=none;shadow=0;gradientColor=none;fontSize=14;align=left;spacing=10;fontColor=#717171;9E9E9E;verticalAlign=top;spacingTop=-4;fontStyle=0;spacingLeft=40;html=1;" vertex="1" parent="1">
          <mxGeometry x="-85" y="42" width="920" height="1108" as="geometry" />
        </mxCell>
        <mxCell id="xxNpDOoEi1nFRLoYtwYr-51" value="" style="shape=mxgraph.gcp2.google_cloud_platform;fillColor=#F6F6F6;strokeColor=none;shadow=0;gradientColor=none;fontSize=29;" vertex="1" parent="xxNpDOoEi1nFRLoYtwYr-50">
          <mxGeometry width="23" height="20" relative="1" as="geometry">
            <mxPoint x="20" y="10" as="offset" />
          </mxGeometry>
        </mxCell>
        <mxCell id="xxNpDOoEi1nFRLoYtwYr-52" value="&lt;b&gt;&lt;font style=&quot;font-size: 29px&quot;&gt;Start the pipeline&lt;/font&gt;&lt;/b&gt;" style="text;html=1;align=center;verticalAlign=middle;resizable=0;points=[];autosize=1;strokeColor=none;fillColor=none;fontSize=12;" vertex="1" parent="xxNpDOoEi1nFRLoYtwYr-50">
          <mxGeometry x="284.9999999999999" y="18.00272727272727" width="250" height="20" as="geometry" />
        </mxCell>
        <mxCell id="xxNpDOoEi1nFRLoYtwYr-56" style="edgeStyle=orthogonalEdgeStyle;rounded=0;orthogonalLoop=1;jettySize=auto;html=1;entryX=0;entryY=0.5;entryDx=0;entryDy=0;fontSize=12;" edge="1" parent="xxNpDOoEi1nFRLoYtwYr-50" source="xxNpDOoEi1nFRLoYtwYr-53" target="xxNpDOoEi1nFRLoYtwYr-54">
          <mxGeometry relative="1" as="geometry" />
        </mxCell>
        <mxCell id="xxNpDOoEi1nFRLoYtwYr-53" value="" style="editableCssRules=.*;shape=image;verticalLabelPosition=bottom;labelBackgroundColor=#ffffff;verticalAlign=top;aspect=fixed;imageAspect=0;image=data:image/svg+xml,PHN2ZyB4bWxucz0iaHR0cDovL3d3dy53My5vcmcvMjAwMC9zdmciIHhtbG5zOnY9Imh0dHBzOi8vdmVjdGEuaW8vbmFubyIgd2lkdGg9IjM3NS44NTAyODQ2NDQwODg3MyIgaGVpZ2h0PSIzNTMuODA1Nzc3NDY3NzY5NyIgdmlld0JveD0iMC4yNTU5OTk1NjUxMjQ1MTE3IDAuNDI2MDAwMDI4ODQ4NjQ4MDcgOTkuNDQzNjU2OTIxMzg2NzIgOTMuNjExMDAwMDYxMDM1MTYiPiYjeGE7PHN0eWxlIHR5cGU9InRleHQvY3NzIj4mI3hhOwkuc3Qwe2ZpbGw6I2FlY2JmYTt9JiN4YTsJLnN0MXtmaWxsOiNmZmY7fSYjeGE7CS5zdDJ7ZmlsbDojNDI4NWY0O30mI3hhOwkuc3Qze2ZpbGw6IzY2OWRmNjt9JiN4YTs8L3N0eWxlPiYjeGE7CTxwYXRoIGNsYXNzPSJzdDAiIGQ9Ik04LjU0NCA3MS45MjhjLTQuODE1IDAtOC4yODgtMy44ODktOC4yODgtOC4zMjdWNy45ODNDLjI1NyA0LjY1IDQuMDcyLjQyNiA3LjQ5NS40MjZoODMuOTUyYzQuNzA1IDAgOC4yNTIgMy4zNzkgOC4yNTIgOC4xNzR2NTEuNDk1Yy4wNDcgNy41OTUtMi40NyAxMS44MzQtOS4wMTIgMTEuODM0eiIvPiYjeGE7CTxwYXRoIGNsYXNzPSJzdDEiIGQ9Ik0yOC4wNDYgNTcuMTV2LTkuOTIybDMxLjg4Mi0xMy44OTEtMzEuODgyLTEzLjY5MlY5LjI2MWw0NS44MDYgMTguOTg0djkuNzl6bTI1LjIzNSAzLjY3MXYtMTAuNTVoMjAuMDc1djEwLjU1eiIvPiYjeGE7CTxwYXRoIGNsYXNzPSJzdDIiIGQ9Ik00MC4wMyA4My41MjRWNzEuOTI4aDIwLjI5NXYxMS41OTZ6Ii8+JiN4YTsJPHBhdGggY2xhc3M9InN0MyIgZD0iTTY5Ljg3MyA4My41MjR2MTAuNTEzSDMwLjFWODMuNTI0eiIvPiYjeGE7PC9zdmc+;" vertex="1" parent="xxNpDOoEi1nFRLoYtwYr-50">
          <mxGeometry x="60" y="123" width="73.69" height="70" as="geometry" />
        </mxCell>
        <mxCell id="xxNpDOoEi1nFRLoYtwYr-60" style="edgeStyle=orthogonalEdgeStyle;rounded=0;orthogonalLoop=1;jettySize=auto;html=1;entryX=0.5;entryY=0;entryDx=0;entryDy=0;fontSize=12;" edge="1" parent="xxNpDOoEi1nFRLoYtwYr-50" source="xxNpDOoEi1nFRLoYtwYr-54" target="xxNpDOoEi1nFRLoYtwYr-57">
          <mxGeometry relative="1" as="geometry" />
        </mxCell>
        <mxCell id="xxNpDOoEi1nFRLoYtwYr-61" value="This will run job in dataflow" style="edgeLabel;html=1;align=center;verticalAlign=middle;resizable=0;points=[];fontSize=12;" vertex="1" connectable="0" parent="xxNpDOoEi1nFRLoYtwYr-60">
          <mxGeometry x="0.2011" y="2" relative="1" as="geometry">
            <mxPoint as="offset" />
          </mxGeometry>
        </mxCell>
        <mxCell id="xxNpDOoEi1nFRLoYtwYr-54" value="&lt;div style=&quot;font-size: 12px&quot;&gt;&lt;font style=&quot;font-size: 12px&quot;&gt;mvn compile exec:java \&lt;/font&gt;&lt;/div&gt;&lt;div style=&quot;font-size: 12px&quot;&gt;&lt;font style=&quot;font-size: 12px&quot;&gt;-Dexec.mainClass=com.examples.pubsub.streaming.PubSubToGcs \&lt;/font&gt;&lt;/div&gt;&lt;div style=&quot;font-size: 12px&quot;&gt;&lt;font style=&quot;font-size: 12px&quot;&gt;-Dexec.cleanupDaemonThreads=false \&lt;/font&gt;&lt;/div&gt;&lt;div style=&quot;font-size: 12px&quot;&gt;&lt;font style=&quot;font-size: 12px&quot;&gt;-Dexec.args=&quot; \&lt;/font&gt;&lt;/div&gt;&lt;div style=&quot;font-size: 12px&quot;&gt;&lt;font style=&quot;font-size: 12px&quot;&gt;&amp;nbsp; &amp;nbsp; --project=$PROJECT_ID \&lt;/font&gt;&lt;/div&gt;&lt;div style=&quot;font-size: 12px&quot;&gt;&lt;font style=&quot;font-size: 12px&quot;&gt;&amp;nbsp; &amp;nbsp; --region=$REGION \&lt;/font&gt;&lt;/div&gt;&lt;div style=&quot;font-size: 12px&quot;&gt;&lt;font style=&quot;font-size: 12px&quot;&gt;&amp;nbsp; &amp;nbsp; --inputTopic=projects/$PROJECT_ID/topics/$TOPIC_ID \&lt;/font&gt;&lt;/div&gt;&lt;div style=&quot;font-size: 12px&quot;&gt;&lt;font style=&quot;font-size: 12px&quot;&gt;&amp;nbsp; &amp;nbsp; --output=gs://$BUCKET_NAME/samples/output \&lt;/font&gt;&lt;/div&gt;&lt;div style=&quot;font-size: 12px&quot;&gt;&lt;font style=&quot;font-size: 12px&quot;&gt;&amp;nbsp; &amp;nbsp; --runner=DataflowRunner \&lt;/font&gt;&lt;/div&gt;&lt;div style=&quot;font-size: 12px&quot;&gt;&lt;font style=&quot;font-size: 12px&quot;&gt;&amp;nbsp; &amp;nbsp; --windowSize=2&quot;&lt;/font&gt;&lt;/div&gt;" style="rounded=0;whiteSpace=wrap;html=1;fontSize=29;align=left;" vertex="1" parent="xxNpDOoEi1nFRLoYtwYr-50">
          <mxGeometry x="225" y="68" width="470" height="180" as="geometry" />
        </mxCell>
        <mxCell id="xxNpDOoEi1nFRLoYtwYr-65" style="edgeStyle=orthogonalEdgeStyle;rounded=0;orthogonalLoop=1;jettySize=auto;html=1;entryX=0.5;entryY=0;entryDx=0;entryDy=0;fontSize=12;" edge="1" parent="xxNpDOoEi1nFRLoYtwYr-50" source="xxNpDOoEi1nFRLoYtwYr-57" target="xxNpDOoEi1nFRLoYtwYr-62">
          <mxGeometry relative="1" as="geometry" />
        </mxCell>
        <mxCell id="xxNpDOoEi1nFRLoYtwYr-57" value="" style="strokeColor=#dddddd;shadow=1;strokeWidth=1;rounded=1;absoluteArcSize=1;arcSize=2;fontSize=12;" vertex="1" parent="xxNpDOoEi1nFRLoYtwYr-50">
          <mxGeometry x="385" y="348" width="150" height="60" as="geometry" />
        </mxCell>
        <mxCell id="xxNpDOoEi1nFRLoYtwYr-58" value="&lt;font color=&quot;#000000&quot;&gt;pubsubtogcs Job&lt;/font&gt;&lt;br&gt;Cloud Dataflow" style="sketch=0;dashed=0;connectable=0;html=1;fillColor=#5184F3;strokeColor=none;shape=mxgraph.gcp2.hexIcon;prIcon=cloud_dataflow;part=1;labelPosition=right;verticalLabelPosition=middle;align=left;verticalAlign=middle;spacingLeft=5;fontColor=#999999;fontSize=12;" vertex="1" parent="xxNpDOoEi1nFRLoYtwYr-57">
          <mxGeometry y="0.5" width="44" height="39" relative="1" as="geometry">
            <mxPoint x="5" y="-19.5" as="offset" />
          </mxGeometry>
        </mxCell>
        <mxCell id="xxNpDOoEi1nFRLoYtwYr-64" style="edgeStyle=orthogonalEdgeStyle;rounded=0;orthogonalLoop=1;jettySize=auto;html=1;entryX=0;entryY=0.5;entryDx=0;entryDy=0;fontSize=12;" edge="1" parent="xxNpDOoEi1nFRLoYtwYr-50" source="xxNpDOoEi1nFRLoYtwYr-62" target="xxNpDOoEi1nFRLoYtwYr-63">
          <mxGeometry relative="1" as="geometry" />
        </mxCell>
        <mxCell id="xxNpDOoEi1nFRLoYtwYr-62" value="" style="editableCssRules=.*;shape=image;verticalLabelPosition=bottom;labelBackgroundColor=#ffffff;verticalAlign=top;aspect=fixed;imageAspect=0;image=data:image/svg+xml,PHN2ZyB4bWxucz0iaHR0cDovL3d3dy53My5vcmcvMjAwMC9zdmciIHhtbG5zOnY9Imh0dHBzOi8vdmVjdGEuaW8vbmFubyIgd2lkdGg9IjM3NS44NTAyODQ2NDQwODg3MyIgaGVpZ2h0PSIzNTMuODA1Nzc3NDY3NzY5NyIgdmlld0JveD0iMC4yNTU5OTk1NjUxMjQ1MTE3IDAuNDI2MDAwMDI4ODQ4NjQ4MDcgOTkuNDQzNjU2OTIxMzg2NzIgOTMuNjExMDAwMDYxMDM1MTYiPiYjeGE7PHN0eWxlIHR5cGU9InRleHQvY3NzIj4mI3hhOwkuc3Qwe2ZpbGw6I2FlY2JmYTt9JiN4YTsJLnN0MXtmaWxsOiNmZmY7fSYjeGE7CS5zdDJ7ZmlsbDojNDI4NWY0O30mI3hhOwkuc3Qze2ZpbGw6IzY2OWRmNjt9JiN4YTs8L3N0eWxlPiYjeGE7CTxwYXRoIGNsYXNzPSJzdDAiIGQ9Ik04LjU0NCA3MS45MjhjLTQuODE1IDAtOC4yODgtMy44ODktOC4yODgtOC4zMjdWNy45ODNDLjI1NyA0LjY1IDQuMDcyLjQyNiA3LjQ5NS40MjZoODMuOTUyYzQuNzA1IDAgOC4yNTIgMy4zNzkgOC4yNTIgOC4xNzR2NTEuNDk1Yy4wNDcgNy41OTUtMi40NyAxMS44MzQtOS4wMTIgMTEuODM0eiIvPiYjeGE7CTxwYXRoIGNsYXNzPSJzdDEiIGQ9Ik0yOC4wNDYgNTcuMTV2LTkuOTIybDMxLjg4Mi0xMy44OTEtMzEuODgyLTEzLjY5MlY5LjI2MWw0NS44MDYgMTguOTg0djkuNzl6bTI1LjIzNSAzLjY3MXYtMTAuNTVoMjAuMDc1djEwLjU1eiIvPiYjeGE7CTxwYXRoIGNsYXNzPSJzdDIiIGQ9Ik00MC4wMyA4My41MjRWNzEuOTI4aDIwLjI5NXYxMS41OTZ6Ii8+JiN4YTsJPHBhdGggY2xhc3M9InN0MyIgZD0iTTY5Ljg3MyA4My41MjR2MTAuNTEzSDMwLjFWODMuNTI0eiIvPiYjeGE7PC9zdmc+;" vertex="1" parent="xxNpDOoEi1nFRLoYtwYr-50">
          <mxGeometry x="330" y="468" width="73.69" height="70" as="geometry" />
        </mxCell>
        <mxCell id="xxNpDOoEi1nFRLoYtwYr-67" style="edgeStyle=orthogonalEdgeStyle;rounded=0;orthogonalLoop=1;jettySize=auto;html=1;fontSize=12;" edge="1" parent="xxNpDOoEi1nFRLoYtwYr-50" source="xxNpDOoEi1nFRLoYtwYr-63" target="xxNpDOoEi1nFRLoYtwYr-66">
          <mxGeometry relative="1" as="geometry" />
        </mxCell>
        <mxCell id="xxNpDOoEi1nFRLoYtwYr-68" value="This will show objects/outputs in GCS bucket" style="edgeLabel;html=1;align=center;verticalAlign=middle;resizable=0;points=[];fontSize=12;" vertex="1" connectable="0" parent="xxNpDOoEi1nFRLoYtwYr-67">
          <mxGeometry x="0.2107" y="-1" relative="1" as="geometry">
            <mxPoint as="offset" />
          </mxGeometry>
        </mxCell>
        <mxCell id="xxNpDOoEi1nFRLoYtwYr-63" value="gsutil ls gs://${BUCKET_NAME}/samples/" style="rounded=0;whiteSpace=wrap;html=1;fontSize=12;align=left;" vertex="1" parent="xxNpDOoEi1nFRLoYtwYr-50">
          <mxGeometry x="490" y="473" width="240" height="60" as="geometry" />
        </mxCell>
        <mxCell id="xxNpDOoEi1nFRLoYtwYr-66" value="&lt;div&gt;gs://{$BUCKET_NAME}/samples/output-22:30-22:32-0-of-1&amp;nbsp;&lt;/div&gt;&lt;div&gt;gs://{$BUCKET_NAME}/samples/output-22:32-22:34-0-of-1&lt;/div&gt;&lt;div&gt;gs://{$BUCKET_NAME}/samples/output-22:34-22:36-0-of-1&lt;/div&gt;&lt;div&gt;gs://{$BUCKET_NAME}/samples/output-22:36-22:38-0-of-1&lt;/div&gt;" style="rounded=0;whiteSpace=wrap;html=1;fontSize=12;" vertex="1" parent="xxNpDOoEi1nFRLoYtwYr-50">
          <mxGeometry x="445" y="598" width="330" height="60" as="geometry" />
        </mxCell>
      </root>
    </mxGraphModel>
  </diagram>
</mxfile>
